<?xml version="1.0" standalone="no"?>
<!DOCTYPE svg PUBLIC "-//W3C//DTD SVG 20010904//EN"
 "http://www.w3.org/TR/2001/REC-SVG-20010904/DTD/svg10.dtd">
<svg version="1.0" xmlns="http://www.w3.org/2000/svg"
 width="32.000000pt" height="32.000000pt" viewBox="0 0 32.000000 32.000000"
 preserveAspectRatio="xMidYMid meet">

<g transform="translate(0.000000,32.000000) scale(0.100000,-0.100000)"
fill="#000000" stroke="none">
<path d="M20 245 c0 -13 22 -15 140 -15 118 0 140 2 140 15 0 13 -22 15 -140
15 -118 0 -140 -2 -140 -15z"/>
<path d="M10 160 l0 -30 150 0 150 0 0 30 0 30 -150 0 -150 0 0 -30z"/>
<path d="M20 75 c0 -13 22 -15 140 -15 118 0 140 2 140 15 0 13 -22 15 -140
15 -118 0 -140 -2 -140 -15z"/>
</g>
</svg>
